<?xml version="1.0" encoding="iso-8859-1"?>
<!-- Uploaded to: SVG Repo, www.svgrepo.com, Generator: SVG Repo Mixer Tools -->
<svg height="800px" width="800px" version="1.1" id="Layer_1" xmlns="http://www.w3.org/2000/svg" xmlns:xlink="http://www.w3.org/1999/xlink" 
	 viewBox="0 0 512.002 512.002" xml:space="preserve">
<path style="fill:#FC4C59;" d="M414.328,64.849l-14.327,36.122l21.634,32.28c3.396,5.066-0.492,11.827-6.579,11.441l-38.78-2.463
	l-24.015,30.55c-3.769,4.795-11.401,3.187-12.914-2.722l-9.64-37.643l-36.475-13.398c-5.726-2.103-6.554-9.858-1.402-13.123
	l32.821-20.801l1.472-38.83c0.231-6.095,7.351-9.279,12.047-5.389l29.926,24.787l37.385-10.6
	C411.349,53.392,416.577,59.179,414.328,64.849z"/>
<g>
	<path style="fill:#3CC247;" d="M443.722,219.546l-12.065,18.858l8.696,20.63c1.365,3.238-1.576,6.636-4.976,5.749l-21.664-5.647
		l-16.933,14.645c-2.658,2.299-6.797,0.551-7.005-2.956l-1.324-22.349l-19.161-11.579c-3.008-1.817-2.625-6.295,0.647-7.576
		l20.846-8.165l5.092-21.801c0.799-3.421,5.175-4.442,7.405-1.726l14.207,17.302l22.307-1.894
		C443.293,212.739,445.616,216.586,443.722,219.546z"/>
	<path style="fill:#3CC247;" d="M274.013,20.839l-7.221,21.191l13.363,17.962c2.097,2.819,0.051,6.819-3.461,6.769l-22.385-0.319
		l-12.954,18.259c-2.033,2.866-6.47,2.156-7.508-1.2l-6.614-21.388l-21.368-6.677c-3.354-1.048-4.05-5.487-1.178-7.512
		l18.298-12.899l-0.253-22.386c-0.04-3.514,3.967-5.548,6.779-3.442l17.922,13.416l21.213-7.158
		C271.974,14.331,275.146,17.513,274.013,20.839z"/>
</g>
<g>
	<path style="fill:#FFDB6C;" d="M259.201,148.711c-94.959,90.118-158.754,212.754-173.55,350.071
		c-0.577,5.355,7.096,6.848,8.556,1.664c34.21-121.598,107.936-226.648,206.443-300.412L259.201,148.711z"/>
	<path style="fill:#FFDB6C;" d="M175.308,75.723C102.283,152.967,73.552,265.893,67.6,377.877c-0.232,4.367,6.055,5.241,7.009,0.973
		c22.385-100.094,59.941-199.199,136.562-263.339L175.308,75.723z"/>
	<path style="fill:#FFDB6C;" d="M328.495,247.68c-90.762,55.33-137.824,105.615-177.982,206.723
		c-1.614,4.065,3.884,6.28,6.507,2.781C219.2,374.23,261.85,337.239,352.638,295.496L328.495,247.68z"/>
</g>
<path style="fill:#E83A64;" d="M407.457,112.094l-14.21-0.903c-6.101-0.388-12.002,2.252-15.78,7.058l-10.179,12.949
	c-6.96,8.855-21.051,5.883-23.846-5.026l-4.087-15.956c-1.517-5.922-5.851-10.72-11.589-12.827l-14.259-5.238l-21.677,13.739
	c-5.152,3.265-4.323,11.02,1.402,13.123l36.475,13.398l9.642,37.643c1.513,5.909,9.145,7.517,12.914,2.722l24.015-30.55l38.78,2.463
	c6.087,0.387,9.975-6.375,6.579-11.441L407.457,112.094z"/>
<g>
	<path style="fill:#2DA85F;" d="M433.028,241.658l-2.085-0.544c-5.916-1.542-12.212-0.074-16.836,3.925l0,0
		c-6.563,5.676-16.785,1.363-17.299-7.299l0,0c-0.361-6.103-3.703-11.638-8.936-14.799l-0.647-0.391l-17.29,6.773
		c-3.271,1.282-3.654,5.759-0.647,7.576l19.161,11.579l1.324,22.349c0.208,3.508,4.347,5.254,7.005,2.956l16.933-14.645
		l21.664,5.648c3.4,0.886,6.341-2.511,4.976-5.749L433.028,241.658z"/>
	<path style="fill:#2DA85F;" d="M268.519,44.351L268.519,44.351c-6.113-0.087-11.878,2.839-15.415,7.825l0,0
		c-5.021,7.077-15.976,5.325-18.539-2.964l0,0c-1.806-5.841-6.37-10.418-12.206-12.242l-1.478-0.462l-16.194,11.417
		c-2.872,2.025-2.175,6.464,1.178,7.512l21.368,6.677l6.614,21.388c1.038,3.357,5.475,4.066,7.508,1.2l12.954-18.259l22.385,0.319
		c3.514,0.05,5.559-3.95,3.461-6.769L268.519,44.351z"/>
</g>
<g>
	<path style="fill:#FFB966;" d="M286.116,182.039c-86.218,65.245-153.199,154.554-190.973,257.935
		c-4.157,19.258-7.345,38.877-9.493,58.809c-0.577,5.355,7.096,6.848,8.556,1.664c34.21-121.598,107.935-226.648,206.443-300.412
		L286.116,182.039z"/>
	<path style="fill:#FFB966;" d="M200.036,103.157C128.868,164.33,91.999,256.052,69.561,350.074
		c-0.817,9.26-1.469,18.535-1.962,27.804c-0.232,4.367,6.055,5.241,7.009,0.973c22.385-100.094,59.941-199.199,136.562-263.339
		L200.036,103.157z"/>
	<path style="fill:#FFB966;" d="M343.88,278.15c-81.965,38.11-124.337,72.807-179.031,142.994
		c-4.91,10.462-9.669,21.514-14.334,33.259c-1.614,4.065,3.884,6.28,6.507,2.781c62.179-82.954,104.829-119.945,195.617-161.688
		L343.88,278.15z"/>
</g>
<path d="M280.166,113.772c0.639,5.983,4.545,10.99,10.195,13.065l32.361,11.888l8.553,33.398c1.493,5.83,6.079,10.222,11.967,11.463
	c1.097,0.231,2.197,0.345,3.286,0.345c4.75,0,9.265-2.153,12.291-6.002l21.305-27.104l34.408,2.185
	c6.001,0.383,11.601-2.622,14.601-7.84c3-5.216,2.782-11.563-0.569-16.561l-19.193-28.64l12.712-32.048
	c2.219-5.594,1.09-11.843-2.944-16.31c-4.034-4.465-10.137-6.216-15.926-4.577l-33.168,9.405l-26.552-21.992
	c-4.635-3.839-10.93-4.696-16.42-2.24c-5.493,2.458-9.048,7.72-9.275,13.732l-1.306,34.452l-29.12,18.455
	C282.288,102.07,279.527,107.788,280.166,113.772z M329.118,92.129c2.318-1.468,3.764-3.984,3.868-6.726l1.397-36.851l28.4,23.523
	c2.113,1.75,4.951,2.349,7.592,1.601l35.478-10.059l-13.596,34.28c-1.012,2.55-0.704,5.435,0.825,7.714l20.53,30.634l-36.803-2.338
	c-2.732-0.173-5.387,1.01-7.083,3.168l-22.79,28.992l-9.149-35.725c-0.68-2.658-2.625-4.811-5.202-5.757l-34.616-12.715
	L329.118,92.129z"/>
<path d="M450.92,210.76c-2.492-4.128-7.032-6.437-11.83-6.03l-17.94,1.524l-11.427-13.916c-3.06-3.726-7.879-5.36-12.575-4.266
	c-4.696,1.095-8.294,4.692-9.391,9.388l-4.095,17.532l-16.765,6.567c-4.49,1.76-7.533,5.836-7.943,10.641
	c-0.41,4.805,1.899,9.338,6.026,11.832l15.409,9.312l1.065,17.974c0.285,4.814,3.222,8.968,7.665,10.843
	c1.593,0.672,3.261,1.001,4.913,1.001c2.956,0,5.862-1.053,8.202-3.076l13.619-11.778l17.422,4.542
	c4.667,1.216,9.526-0.293,12.682-3.939s3.953-8.671,2.08-13.114l-6.993-16.592l9.704-15.167l0,0
	C453.347,219.976,453.412,214.889,450.92,210.76z M423.979,241.641l5.47,12.981l-13.63-3.552c-2.657-0.694-5.481-0.033-7.556,1.761
	l-10.654,9.215l-0.834-14.061c-0.162-2.739-1.662-5.223-4.009-6.643l-12.056-7.286l13.116-5.138c2.554-1,4.454-3.195,5.077-5.867
	l3.203-13.717l8.939,10.886c1.741,2.121,4.413,3.251,7.148,3.017l14.035-1.192l-7.592,11.866
	C423.159,236.222,422.913,239.114,423.979,241.641z"/>
<path d="M203.382,63.393l17.185,5.37l5.32,17.202c1.425,4.607,5.268,7.942,10.029,8.702c0.677,0.109,1.352,0.161,2.021,0.161
	c4.035,0,7.827-1.93,10.221-5.303l10.417-14.685l18.004,0.256c4.813,0.081,9.18-2.555,11.375-6.849
	c2.195-4.294,1.771-9.364-1.107-13.232L276.101,40.57l5.807-17.043c1.555-4.564,0.407-9.521-2.999-12.936
	c-3.405-3.416-8.355-4.577-12.926-3.037l-17.06,5.758l-14.413-10.79c-3.861-2.891-8.93-3.328-13.23-1.146
	c-4.299,2.183-6.937,6.535-6.882,11.357l0.203,18.004L199.886,41.11c-3.942,2.779-5.926,7.464-5.178,12.228
	C195.455,58.103,198.779,61.956,203.382,63.393z M227.79,41.839c2.243-1.581,3.564-4.164,3.532-6.908l-0.159-14.084l11.277,8.441
	c2.198,1.645,5.061,2.102,7.662,1.226l13.346-4.504l-4.543,13.333c-0.885,2.597-0.436,5.463,1.203,7.665l8.408,11.302l-14.084-0.201
	c-2.715-0.032-5.33,1.274-6.918,3.512l-8.15,11.489l-4.162-13.457c-0.81-2.621-2.859-4.676-5.478-5.494l-13.445-4.201L227.79,41.839
	z"/>
<path d="M305.65,206.708c3.685-2.76,4.436-7.984,1.676-11.67s-7.985-4.436-11.67-1.676
	c-50.137,37.543-93.604,82.695-129.195,134.202c-26.995,39.066-48.901,81.001-65.403,125.133
	c22.161-113.261,79.326-217.689,163.885-297.938c3.34-3.17,3.478-8.447,0.308-11.786c-3.169-3.34-8.444-3.478-11.786-0.308
	c-99.001,93.954-161.541,220.109-176.1,355.224c-0.716,6.639,3.681,12.6,10.227,13.865c0.865,0.167,1.721,0.248,2.561,0.248
	c5.614,0,10.483-3.619,12.08-9.298c16.645-59.166,42.87-114.904,77.943-165.663C214.742,287.02,256.957,243.17,305.65,206.708z"/>
<path d="M82.748,380.669C110.3,257.465,152.81,175.241,216.526,121.903c3.53-2.956,3.997-8.213,1.042-11.743
	c-2.956-3.531-8.213-3.997-11.743-1.042c-36.771,30.781-66.466,70.35-90.784,120.97c-12.772,26.585-23.923,56.057-33.697,89.155
	c4.926-37.088,12.578-71.524,22.881-102.867c17.83-54.243,43.786-99.639,77.144-134.926c3.162-3.346,3.015-8.622-0.331-11.786
	c-3.347-3.165-8.623-3.014-11.786,0.331c-35.058,37.083-62.265,84.581-80.868,141.173c-16.045,48.811-25.838,104.75-29.108,166.265
	c-0.331,6.236,4.076,11.578,10.254,12.427c0.56,0.077,1.115,0.115,1.664,0.115C76.699,389.976,81.509,386.207,82.748,380.669z"/>
<path d="M349.16,287.921c-78.57,36.126-122.535,68.915-175.771,134.619c15.729-33.168,32.805-59.635,53.416-83.174
	c25.885-29.562,58.588-55.645,106.035-84.569c3.931-2.396,5.175-7.526,2.779-11.458c-2.396-3.932-7.526-5.176-11.458-2.779
	c-96.364,58.745-142.135,111.927-181.39,210.763c-2.222,5.594-0.182,11.513,4.962,14.396c1.845,1.034,3.869,1.528,5.887,1.528
	c3.825,0,7.617-1.784,10.077-5.065c32.778-43.73,58.424-72.111,85.748-94.896c28.422-23.7,60.326-42.905,106.681-64.218
	c4.183-1.923,6.015-6.874,4.092-11.058C358.293,287.831,353.347,285.999,349.16,287.921z"/>
</svg>